<svg width="67" height="68" viewBox="0 0 67 68" fill="none" xmlns="http://www.w3.org/2000/svg">
<circle cx="33.5" cy="33.5015" r="33.5" fill="#D167DA"/>
<path d="M33.1 42.2265C30.65 42.2265 28.8 41.6681 27.55 40.5515C26.3167 39.4181 25.7 37.7431 25.7 35.5265C25.7 35.3098 25.7167 34.9681 25.75 34.5015L26.55 24.3765H30.375L29.575 34.6015C29.5583 34.7848 29.55 35.0431 29.55 35.3765C29.55 36.6598 29.8583 37.6181 30.475 38.2515C31.0917 38.8848 32.0333 39.2015 33.3 39.2015C34.4167 39.2015 35.2917 38.8848 35.925 38.2515C36.5583 37.6015 36.9333 36.5515 37.05 35.1015L37.9 24.3765H41.725L40.9 34.8265C40.7167 37.2765 39.9667 39.1265 38.65 40.3765C37.3333 41.6098 35.4833 42.2265 33.1 42.2265Z" fill="white"/>
</svg>
