<svg width="462" height="259" viewBox="0 0 462 259" fill="none" xmlns="http://www.w3.org/2000/svg">
<g filter="url(#filter0_d_12_68)">
<path d="M80 64.0001H382V163H80V64.0001Z" fill="white"/>
</g>
<path d="M135.06 98.7201C135.605 97.4078 137.464 97.4078 138.01 98.7201L141.126 106.211C141.356 106.764 141.876 107.142 142.473 107.19L150.561 107.839C151.977 107.952 152.552 109.72 151.473 110.645L145.311 115.923C144.856 116.313 144.657 116.924 144.796 117.507L146.679 125.399C147.008 126.782 145.504 127.874 144.292 127.133L137.368 122.904C136.856 122.592 136.213 122.592 135.702 122.904L128.778 127.133C127.565 127.874 126.061 126.781 126.391 125.399L128.274 117.507C128.413 116.924 128.214 116.313 127.759 115.923L121.597 110.645C120.518 109.72 121.092 107.952 122.509 107.839L130.596 107.19C131.193 107.142 131.714 106.764 131.944 106.211L135.06 98.7201Z" fill="#F3AC41"/>
<path d="M183.792 98.72C184.338 97.4077 186.197 97.4077 186.742 98.72L189.858 106.211C190.088 106.764 190.609 107.142 191.206 107.19L199.293 107.839C200.71 107.952 201.284 109.72 200.205 110.645L194.043 115.923C193.588 116.313 193.389 116.924 193.529 117.507L195.411 125.399C195.741 126.781 194.237 127.874 193.024 127.133L186.1 122.904C185.589 122.592 184.946 122.592 184.434 122.904L177.51 127.133C176.298 127.874 174.794 126.781 175.123 125.399L177.006 117.507C177.145 116.924 176.946 116.313 176.491 115.923L170.329 110.645C169.25 109.72 169.825 107.952 171.241 107.839L179.329 107.19C179.926 107.142 180.446 106.764 180.676 106.211L183.792 98.72Z" fill="#F3AC41"/>
<path d="M232.525 98.72C233.071 97.4077 234.929 97.4077 235.475 98.72L238.591 106.211C238.821 106.764 239.341 107.142 239.939 107.19L248.026 107.839C249.443 107.952 250.017 109.72 248.938 110.645L242.776 115.923C242.321 116.313 242.122 116.924 242.261 117.507L244.144 125.399C244.474 126.781 242.97 127.874 241.757 127.133L234.833 122.904C234.322 122.592 233.678 122.592 233.167 122.904L226.243 127.133C225.03 127.874 223.526 126.781 223.856 125.399L225.739 117.507C225.878 116.924 225.679 116.313 225.224 115.923L219.062 110.645C217.983 109.72 218.557 107.952 219.974 107.839L228.061 107.19C228.659 107.142 229.179 106.764 229.409 106.211L232.525 98.72Z" fill="#F3AC41"/>
<path d="M281.257 98.72C281.803 97.4077 283.662 97.4077 284.208 98.72L287.324 106.211C287.554 106.764 288.074 107.142 288.671 107.19L296.759 107.839C298.175 107.952 298.75 109.72 297.67 110.645L291.509 115.923C291.054 116.313 290.855 116.924 290.994 117.507L292.877 125.399C293.206 126.781 291.702 127.874 290.489 127.133L283.566 122.904C283.054 122.592 282.411 122.592 281.9 122.904L274.976 127.133C273.763 127.874 272.259 126.781 272.589 125.399L274.471 117.507C274.61 116.924 274.412 116.313 273.957 115.923L267.795 110.645C266.716 109.72 267.29 107.952 268.707 107.839L276.794 107.19C277.391 107.142 277.912 106.764 278.142 106.211L281.257 98.72Z" fill="#F3AC41"/>
<path d="M329.99 98.72C330.536 97.4077 332.395 97.4077 332.941 98.72L336.057 106.211C336.287 106.764 336.807 107.142 337.404 107.19L345.491 107.839C346.908 107.952 347.483 109.72 346.403 110.645L340.242 115.923C339.787 116.313 339.588 116.924 339.727 117.507L341.609 125.399C341.939 126.781 340.435 127.874 339.222 127.133L332.298 122.904C331.787 122.592 331.144 122.592 330.633 122.904L323.709 127.133C322.496 127.874 320.992 126.781 321.322 125.399L323.204 117.507C323.343 116.924 323.145 116.313 322.689 115.923L316.528 110.645C315.448 109.72 316.023 107.952 317.44 107.839L325.527 107.19C326.124 107.142 326.644 106.764 326.874 106.211L329.99 98.72Z" fill="#F3AC41"/>
<defs>
<filter id="filter0_d_12_68" x="0.110161" y="0.0882759" width="461.78" height="258.78" filterUnits="userSpaceOnUse" color-interpolation-filters="sRGB">
<feFlood flood-opacity="0" result="BackgroundImageFix"/>
<feColorMatrix in="SourceAlpha" type="matrix" values="0 0 0 0 0 0 0 0 0 0 0 0 0 0 0 0 0 0 127 0" result="hardAlpha"/>
<feOffset dy="15.978"/>
<feGaussianBlur stdDeviation="39.9449"/>
<feComposite in2="hardAlpha" operator="out"/>
<feColorMatrix type="matrix" values="0 0 0 0 0.483615 0 0 0 0 0.483615 0 0 0 0 0.483615 0 0 0 0.1 0"/>
<feBlend mode="normal" in2="BackgroundImageFix" result="effect1_dropShadow_12_68"/>
<feBlend mode="normal" in="SourceGraphic" in2="effect1_dropShadow_12_68" result="shape"/>
</filter>
</defs>
</svg>
