<svg width="45" height="45" viewBox="0 0 45 45" fill="none" xmlns="http://www.w3.org/2000/svg">
<path fill-rule="evenodd" clip-rule="evenodd" d="M12.2343 4.50123C14.0033 4.35999 15.6826 3.66422 17.033 2.51298C18.5584 1.21386 20.4965 0.500366 22.5 0.500366C24.5036 0.500366 26.4417 1.21386 27.967 2.51298C29.3175 3.66422 30.9968 4.35999 32.7658 4.50123C34.7635 4.66089 36.639 5.52688 38.0561 6.94396C39.4731 8.36104 40.3391 10.2365 40.4988 12.2342C40.639 14.0025 41.3348 15.6827 42.487 17.033C43.7862 18.5583 44.4997 20.4964 44.4997 22.5C44.4997 24.5036 43.7862 26.4417 42.487 27.967C41.3358 29.3175 40.64 30.9968 40.4988 32.7657C40.3391 34.7634 39.4731 36.6389 38.0561 38.056C36.639 39.4731 34.7635 40.3391 32.7658 40.4987C30.9968 40.64 29.3175 41.3358 27.967 42.487C26.4417 43.7861 24.5036 44.4996 22.5 44.4996C20.4965 44.4996 18.5584 43.7861 17.033 42.487C15.6826 41.3358 14.0033 40.64 12.2343 40.4987C10.2366 40.3391 8.3611 39.4731 6.94402 38.056C5.52694 36.6389 4.66095 34.7634 4.50129 32.7657C4.36005 30.9968 3.66428 29.3175 2.51304 27.967C1.21392 26.4417 0.500427 24.5036 0.500427 22.5C0.500427 20.4964 1.21392 18.5583 2.51304 17.033C3.66428 15.6825 4.36005 14.0032 4.50129 12.2342C4.66095 10.2365 5.52694 8.36104 6.94402 6.94396C8.3611 5.52688 10.2366 4.66089 12.2343 4.50123ZM32.6943 18.9442C33.1952 18.4256 33.4724 17.7309 33.4661 17.0099C33.4599 16.2888 33.1707 15.5991 32.6608 15.0892C32.1509 14.5794 31.4612 14.2901 30.7401 14.2839C30.0191 14.2776 29.3244 14.5548 28.8058 15.0557L19.75 24.1115L16.1943 20.5557C15.6756 20.0548 14.981 19.7776 14.2599 19.7839C13.5389 19.7901 12.8492 20.0794 12.3393 20.5892C11.8294 21.0991 11.5402 21.7888 11.5339 22.5099C11.5277 23.2309 11.8049 23.9256 12.3058 24.4442L17.8058 29.9442C18.3215 30.4598 19.0208 30.7494 19.75 30.7494C20.4792 30.7494 21.1786 30.4598 21.6943 29.9442L32.6943 18.9442Z" fill="white"/>
</svg>
